<svg xmlns="http://www.w3.org/2000/svg" xmlns:xlink="http://www.w3.org/1999/xlink" width="265.761" height="293.646" viewBox="0 0 265.761 293.646">
  <defs>
    <radialGradient id="radial-gradient" cx="0.5" cy="0.5" r="0.5" gradientUnits="objectBoundingBox">
      <stop offset="0" stop-color="#ff7ef6"/>
      <stop offset="0.491" stop-color="#ff63c2"/>
      <stop offset="1" stop-color="#1700ff"/>
    </radialGradient>
  </defs>
  <g id="Path_8" data-name="Path 8" transform="translate(0 59.351) rotate(-17)" fill="url(#radial-gradient)">
    <path d="M 101.5 242.5 C 94.81517028808594 242.5 88.13449859619141 241.6871948242188 81.64363098144531 240.0841674804688 C 75.31266784667969 238.5206298828125 69.08319854736328 236.1864929199219 63.12826538085938 233.1466674804688 C 57.27123260498047 230.1567993164063 51.61953353881836 226.4540710449219 46.3302001953125 222.1413726806641 C 41.08126831054688 217.8615264892578 36.14336776733398 212.9440612792969 31.65369987487793 207.5255279541016 C 27.1569995880127 202.0984649658203 23.07329940795898 196.1245727539063 19.51609992980957 189.7697601318359 C 15.92059993743896 183.3466644287109 12.83186626434326 176.4783630371094 10.33570003509521 169.3556976318359 C 7.791333198547363 162.0955657958984 5.836966514587402 154.4966735839844 4.526933193206787 146.7700958251953 C 3.181966781616211 138.8374633789063 2.5 130.6718292236328 2.5 122.5 C 2.5 114.3281631469727 3.181966781616211 106.1625366210938 4.526933193206787 98.22989654541016 C 5.836966514587402 90.50333404541016 7.791333198547363 82.90443420410156 10.33570003509521 75.64430236816406 C 12.83186626434326 68.52163696289063 15.92059993743896 61.6533317565918 19.51609992980957 55.23023223876953 C 23.07329940795898 48.87543487548828 27.1569995880127 42.90153503417969 31.65369987487793 37.47446823120117 C 36.14336776733398 32.05593490600586 41.08126831054688 27.13846588134766 46.3302001953125 22.85863304138184 C 51.61953353881836 18.54593276977539 57.27123260498047 14.84319972991943 63.12826538085938 11.85333347320557 C 69.08319854736328 8.81350040435791 75.31266784667969 6.479366779327393 81.64363098144531 4.915833473205566 C 88.13449859619141 3.31279993057251 94.81517028808594 2.5 101.5 2.5 C 108.1848297119141 2.5 114.8655014038086 3.31279993057251 121.3563690185547 4.915833473205566 C 127.6873321533203 6.479366779327393 133.9167938232422 8.81350040435791 139.8717346191406 11.85333347320557 C 145.728759765625 14.84319972991943 151.3804626464844 18.54593276977539 156.6697998046875 22.85863304138184 C 161.9187316894531 27.13846588134766 166.8566284179688 32.05593490600586 171.3462982177734 37.47446823120117 C 175.8430023193359 42.90153503417969 179.9266967773438 48.87543487548828 183.4839019775391 55.23023223876953 C 187.0794067382813 61.6533317565918 190.1681365966797 68.52163696289063 192.664306640625 75.64430236816406 C 195.2086639404297 82.90443420410156 197.1630401611328 90.50333404541016 198.4730682373047 98.22989654541016 C 199.8180389404297 106.1625366210938 200.5 114.3281631469727 200.5 122.5 C 200.5 130.6718292236328 199.8180389404297 138.8374633789063 198.4730682373047 146.7700958251953 C 197.1630401611328 154.4966735839844 195.2086639404297 162.0955657958984 192.664306640625 169.3556976318359 C 190.1681365966797 176.4783630371094 187.0794067382813 183.3466644287109 183.4839019775391 189.7697601318359 C 179.9266967773438 196.1245727539063 175.8430023193359 202.0984649658203 171.3462982177734 207.5255279541016 C 166.8566284179688 212.9440612792969 161.9187316894531 217.8615264892578 156.6697998046875 222.1413726806641 C 151.3804626464844 226.4540710449219 145.728759765625 230.1567993164063 139.8717346191406 233.1466674804688 C 133.9167938232422 236.1864929199219 127.6873321533203 238.5206298828125 121.3563690185547 240.0841674804688 C 114.8655014038086 241.6871948242188 108.1848297119141 242.5 101.5 242.5 Z" stroke="none"/>
    <path d="M 101.5 5 C 95.0169677734375 5 88.53800201416016 5.788284301757813 82.24303436279297 7.342926025390625 C 76.09799957275391 8.86053466796875 70.04928588867188 11.12721252441406 64.26492309570313 14.07997131347656 C 58.56510925292969 16.98957824707031 53.06253051757813 20.59503173828125 47.9100341796875 24.79621887207031 C 42.78671264648438 28.97357177734375 37.96499633789063 33.77578735351563 33.57878112792969 39.06950378417969 C 29.17842102050781 44.3802490234375 25.18099975585938 50.22836303710938 21.69757080078125 56.45135498046875 C 18.17242431640625 62.74874877929688 15.14353942871094 69.48439025878906 12.69500732421875 76.47114562988281 C 10.1971435546875 83.59857177734375 8.278289794921875 91.05986022949219 6.991744995117188 98.64778137207031 C 5.670135498046875 106.4427490234375 5 114.4677886962891 5 122.5 C 5 130.5321807861328 5.670135498046875 138.5572204589844 6.991744995117188 146.3521728515625 C 8.278289794921875 153.9401092529297 10.1971435546875 161.4014282226563 12.69500732421875 168.5288543701172 C 15.14353942871094 175.5156097412109 18.17242431640625 182.251220703125 21.69757080078125 188.5486450195313 C 25.18099975585938 194.7716369628906 29.17842102050781 200.6197204589844 33.57878112792969 205.9304962158203 C 37.96499633789063 211.2241821289063 42.78671264648438 216.0264282226563 47.9100341796875 220.2037811279297 C 53.06253051757813 224.4049682617188 58.56510925292969 228.0103912353516 64.26492309570313 230.9199981689453 C 70.04928588867188 233.8727874755859 76.09799957275391 236.1394653320313 82.24303436279297 237.6570739746094 C 88.53800201416016 239.2117156982422 95.0169677734375 240 101.5 240 C 107.9830322265625 240 114.4619979858398 239.2117156982422 120.756965637207 237.6570739746094 C 126.9020004272461 236.1394653320313 132.9507141113281 233.8727874755859 138.7350769042969 230.9199981689453 C 144.4348907470703 228.0103912353516 149.9374694824219 224.4049682617188 155.0899658203125 220.2037811279297 C 160.2132873535156 216.0264282226563 165.0350036621094 211.2241821289063 169.4212188720703 205.9304962158203 C 173.8215637207031 200.6197204589844 177.8190002441406 194.7716369628906 181.3024291992188 188.5486450195313 C 184.8275756835938 182.251220703125 187.8564605712891 175.5156097412109 190.3049926757813 168.5288543701172 C 192.8028564453125 161.4014282226563 194.7217102050781 153.9401092529297 196.0082550048828 146.3521728515625 C 197.3298645019531 138.5572204589844 198 130.5321807861328 198 122.5 C 198 114.4677886962891 197.3298645019531 106.4427490234375 196.0082550048828 98.64778137207031 C 194.7217102050781 91.05986022949219 192.8028564453125 83.59857177734375 190.3049926757813 76.47114562988281 C 187.8564605712891 69.48439025878906 184.8275756835938 62.74874877929688 181.3024291992188 56.45135498046875 C 177.8190002441406 50.22836303710938 173.8215637207031 44.3802490234375 169.4212188720703 39.06950378417969 C 165.0350036621094 33.77578735351563 160.2132873535156 28.97357177734375 155.0899658203125 24.79621887207031 C 149.9374694824219 20.59503173828125 144.4348907470703 16.98957824707031 138.7350769042969 14.07997131347656 C 132.9507141113281 11.12721252441406 126.9020004272461 8.86053466796875 120.756965637207 7.342926025390625 C 114.4619979858398 5.788284301757813 107.9830322265625 5 101.5 5 M 101.5 0 C 157.556884765625 0 203 54.84510803222656 203 122.5 C 203 190.1548614501953 157.556884765625 245 101.5 245 C 45.44309997558594 245 0 190.1548614501953 0 122.5 C 0 54.84510803222656 45.44309997558594 0 101.5 0 Z" stroke="none" fill="red"/>
  </g>
</svg>
